<?xml version="1.0" encoding="UTF-8" standalone="no"?><!DOCTYPE svg PUBLIC "-//W3C//DTD SVG 1.1//EN" "http://www.w3.org/Graphics/SVG/1.1/DTD/svg11.dtd"><svg width="100%" height="100%" viewBox="0 0 61 71" version="1.1" xmlns="http://www.w3.org/2000/svg" xmlns:xlink="http://www.w3.org/1999/xlink" xml:space="preserve" xmlns:serif="http://www.serif.com/" style="fill-rule:evenodd;clip-rule:evenodd;stroke-linejoin:round;stroke-miterlimit:2;"><path d="M40.804,11.532c2.513,-3.054 4.205,-7.303 3.743,-11.532c-3.622,0.146 -8.004,2.422 -10.604,5.473c-2.329,2.702 -4.369,7.028 -3.819,11.173c4.039,0.314 8.165,-2.059 10.68,-5.114Zm19.639,40.312c-0.084,0.253 -1.559,5.125 -5.138,10.154c-3.093,4.351 -6.304,8.684 -11.362,8.773c-4.971,0.089 -6.569,-2.835 -12.252,-2.835c-5.681,-0 -7.456,2.746 -12.162,2.924c-4.881,0.177 -8.6,-4.704 -11.72,-9.037c-6.375,-8.865 -11.247,-25.048 -4.704,-35.973c3.25,-5.425 9.056,-8.861 15.36,-8.95c4.794,-0.086 9.32,3.104 12.25,3.104c2.929,-0 8.428,-3.837 14.21,-3.273c2.42,0.096 9.214,0.94 13.578,7.081c-0.352,0.209 -8.107,4.552 -8.023,13.585c0.104,10.807 9.855,14.401 9.963,14.447Z" style="fill:#fff;"/></svg>