<?xml version="1.0" encoding="UTF-8" standalone="no"?><!DOCTYPE svg PUBLIC "-//W3C//DTD SVG 1.1//EN" "http://www.w3.org/Graphics/SVG/1.1/DTD/svg11.dtd">
<svg viewBox="0 525 2273 2116" version="1.1" xmlns="http://www.w3.org/2000/svg" xmlns:xlink="http://www.w3.org/1999/xlink" xml:space="preserve" xmlns:serif="http://www.serif.com/" style="fill-rule:evenodd;clip-rule:evenodd;stroke-linejoin:round;stroke-miterlimit:2;">
<!-- ViewBox position settings -->
<!-- <svg viewBox="0 350 2273 2116" version="1.1" xmlns="http://www.w3.org/2000/svg" xmlns:xlink="http://www.w3.org/1999/xlink" xml:space="preserve" xmlns:serif="http://www.serif.com/" style="fill-rule:evenodd;clip-rule:evenodd;stroke-linejoin:round;stroke-miterlimit:2;"> -->
<rect id="Browser" x="0" y="0" width="2272.22" height="2115.28" style="fill:none;"/><g id="Browser1" serif:id="Browser"><g id="Web-Browser" serif:id="Web Browser"><path id="Browser-Window" serif:id="Browser Window" d="M1922.22,565.977c0,-10.926 -8.87,-19.796 -19.796,-19.796l-1532.63,-0c-10.926,-0 -19.796,8.87 -19.796,19.796l0,983.324c0,10.926 8.87,19.796 19.796,19.796l1532.63,0c10.926,0 19.796,-8.87 19.796,-19.796l0,-983.324Z" style="fill:#e6e6e6;"/><clipPath id="_clip1"><path d="M1922.22,565.977c0,-10.926 -8.87,-19.796 -19.796,-19.796l-1532.63,-0c-10.926,-0 -19.796,8.87 -19.796,19.796l0,983.324c0,10.926 8.87,19.796 19.796,19.796l1532.63,0c10.926,0 19.796,-8.87 19.796,-19.796l0,-983.324Z"/></clipPath><g clip-path="url(#_clip1)"><rect id="Menu-Bar" serif:id="Menu Bar" x="329.167" y="542.104" width="1612.5" height="75.834" style="fill:#474747;"/></g><g id="Hamburger-Menu" serif:id="Hamburger Menu"><rect x="1833.61" y="591.887" width="40.697" height="3.096" style="fill:#fffcfc;fill-opacity:0.8;"/><rect x="1833.61" y="581.566" width="40.697" height="3.096" style="fill:#fffcfc;fill-opacity:0.8;"/><rect x="1833.61" y="571.246" width="40.697" height="3.096" style="fill:#fffcfc;fill-opacity:0.8;"/></g><g id="Search-Bar" serif:id="Search Bar"><path id="Search-Bar1" serif:id="Search Bar" d="M1785.86,565.341c0,-1.376 -1.117,-2.494 -2.494,-2.494l-1048.2,0c-1.377,0 -2.494,1.118 -2.494,2.494l-0,35.141c-0,1.376 1.117,2.494 2.494,2.494l1048.2,-0c1.377,-0 2.494,-1.118 2.494,-2.494l0,-35.141Z" style="fill:#6d6d6d;"/><path id="Favorite" d="M1758.37,579.667l10.903,0l-8.82,6.489l3.369,10.498l-8.82,-6.488l-8.82,6.488l3.368,-10.498l-8.819,-6.489l10.902,0l3.369,-10.498c1.123,3.5 2.245,6.999 3.368,10.498Zm-5.972,1.067l-8.427,-0l6.817,5.014l-2.603,8.115l6.817,-5.015l6.817,5.015l-2.604,-8.115l6.817,-5.014l-8.427,-0l-2.603,-8.115c-0.868,2.705 -1.736,5.41 -2.604,8.115Z" style="fill:#fff;fill-opacity:0.35;fill-rule:nonzero;"/><path id="Home" d="M773.556,574.861l0,-0.216c0,-1.012 0.808,-1.832 1.821,-1.832c1.006,-0 1.821,0.81 1.821,1.832l0,3.461l2.966,2.642c1.041,0.927 0.753,1.678 -0.643,1.678l-2.323,0l0,14.351c0,0.702 -0.553,1.271 -1.271,1.271l-21.737,0c-0.702,0 -1.271,-0.566 -1.271,-1.271l-0,-14.351l-2.335,0c-1.395,0 -1.684,-0.75 -0.643,-1.678l14.174,-12.627c0.518,-0.462 1.358,-0.462 1.876,-0l7.565,6.74Zm-4.856,10.57l0,8.832l4.856,-0l0,-8.832l-4.856,-0Z" style="fill:#fff;fill-opacity:0.35;"/></g><g id="Navigation"><rect x="633.333" y="567.775" width="1.389" height="35.201" style="fill:#fffcfc;fill-opacity:0.39;"/><path id="Back" d="M601.071,567.775l-20.028,17.433l20.028,17.768l3.815,-3.353l-16.213,-14.415l16.213,-14.081l-3.815,-3.352Z" style="fill:#fff;fill-opacity:0.5;fill-rule:nonzero;"/><path id="Forward" d="M667.737,567.775l20.028,17.433l-20.028,17.768l-3.815,-3.353l16.213,-14.415l-16.213,-14.081l3.815,-3.352Z" style="fill:#fff;fill-opacity:0.5;fill-rule:nonzero;"/></g><circle id="Expand" cx="487.291" cy="582.912" r="15.744" style="fill:#0e0;"/><circle id="Minimize" cx="444.689" cy="582.912" r="15.744" style="fill:#fbd400;"/><circle id="Close" cx="401.161" cy="582.912" r="15.744" style="fill:#f00;"/></g></g></svg>