<?xml version="1.0" encoding="UTF-8" standalone="no"?><!DOCTYPE svg PUBLIC "-//W3C//DTD SVG 1.1//EN" "http://www.w3.org/Graphics/SVG/1.1/DTD/svg11.dtd"><svg width="100%" height="100%" viewBox="0 0 85 56" version="1.1" xmlns="http://www.w3.org/2000/svg" xmlns:xlink="http://www.w3.org/1999/xlink" xml:space="preserve" xmlns:serif="http://www.serif.com/" style="fill-rule:evenodd;clip-rule:evenodd;stroke-linejoin:round;stroke-miterlimit:2;"><path id="Mail" d="M0.5,0.5l0,54.167l83.333,-0l0,-54.167l-83.333,0Zm48.75,33.125c-1.875,1.875 -4.375,2.917 -7.083,2.917c-2.709,-0 -5.209,-1.042 -7.084,-2.917l-28.958,-28.958l71.875,-0l-28.75,28.958Zm-23.125,-6.042l-21.458,21.459l-0,-42.917l21.458,21.458Zm1.458,1.459l6.042,6.041c2.292,2.292 5.417,3.542 8.542,3.542c3.333,0 6.25,-1.25 8.541,-3.542l6.042,-6.041l21.458,21.458l-72.083,0l21.458,-21.458Zm30.625,-1.459l21.459,-21.458l-0,43.125l-21.459,-21.667Z" style="fill:#fff;fill-rule:nonzero;stroke:#fff;stroke-width:1px;"/></svg>